<?xml version="1.0" encoding="utf-8" ?>
<svg xmlns="http://www.w3.org/2000/svg" xmlns:xlink="http://www.w3.org/1999/xlink" width="1024" height="1024">
	<path fill="#3F3E3F" transform="scale(2 2)" d="M297.226 357.369L124.247 357.364C116.919 357.366 109.173 357.939 101.936 356.74C84.6495 353.877 72.849 338.095 72.77 320.882L72.7818 123.659C72.761 108.118 70.672 92.7974 82.7393 80.7703C91.4641 72.0745 99.5643 70.5352 111.356 70.5142L322.816 70.5095C344.393 70.5032 368.401 68.7152 375.089 96.5597C377.044 104.7 376.247 116.053 376.25 124.533L376.24 163.569C421.269 175.681 448.256 222.744 436.515 267.789C429.97 292.902 415.072 307.966 393.732 320.496C396.817 321.364 395.175 327 395.294 329.512L410.764 329.512L410.764 391.404C421.524 392.428 438.226 388.216 439.219 405.675C439.953 418.594 442.039 436.783 424.073 437.505C413.271 437.939 402.385 437.651 391.57 437.653L298.737 437.651C286.295 437.648 267.691 440.546 267.181 422.398C266.959 414.523 265.661 401.337 271.245 395.706C277.561 389.336 288.886 391.406 297.226 391.404L297.226 357.369Z"/>
	<path fill="#CCE4F0" transform="scale(2 2)" d="M383.905 325.49C387.013 323.558 390.431 322.066 393.732 320.496C396.817 321.364 395.175 327 395.294 329.512C395.62 333.575 395.309 337.892 395.294 341.982L383.905 341.982C383.731 336.508 383.899 330.971 383.905 325.49Z"/>
	<path fill="#CCE4F0" transform="scale(2 2)" d="M88.1348 135.184L361.177 135.184L361.177 160.777C338.614 160.466 319.63 164.588 301.845 179.185C265.632 208.907 259.619 263.764 289.55 300.056C299.825 312.351 310.208 319.209 324.875 325.49L324.875 341.982L312.494 341.982L312.494 328.766L297.226 328.766L297.226 341.982L128.207 341.984C113.55 342 91.3869 344.839 88.4032 324.472C87.5806 318.856 88.1366 311.29 88.1387 305.466L88.1348 135.184Z"/>
	<path fill="#3F3E3F" transform="scale(2 2)" d="M151.245 310.472L272.778 310.472L272.778 325.49L151.245 325.49L151.245 310.472Z"/>
	<path fill="#3F3E3F" transform="scale(2 2)" d="M154.385 174.003C157.8 178.056 162.167 181.032 164.916 185.646C158.157 191.097 147.399 201.38 141.642 208.245C148.771 215.493 157.327 224.008 164.916 230.789C161.605 233.57 158.602 236.728 155.556 239.792L154.385 241.312C144.091 232.245 133.688 221.388 123.565 211.748C123.781 209.351 123.583 206.796 123.565 204.382C132.134 195.151 144.886 182.273 154.385 174.003Z"/>
	<path fill="#3F3E3F" transform="scale(2 2)" d="M229.087 175.182L229.489 175.299L246.674 192.55C259.954 205.695 263.599 205.366 248.55 220.374C241.518 227.387 234.316 234.229 227.357 241.312L225.696 239.792C222.84 236.718 219.839 233.77 216.887 230.789C224.215 222.513 232.751 215.439 240.249 207.338C237.976 204.702 235.271 202.371 232.771 199.944L218.16 185.646C221.71 182.071 225.268 178.472 229.087 175.182Z"/>
	<path fill="#3F3E3F" transform="scale(2 2)" d="M198.256 170.284C213.183 170.324 202.708 193.894 200.657 201.85L194.445 225.71C192.757 232.198 192.72 241.167 185.095 243.168C181.634 243.368 177.934 241.477 176.84 238.008C175.599 234.071 183.111 210.317 184.427 205.182L189.656 184.901C191.225 178.812 191.085 172.013 198.256 170.284Z"/>
	<path fill="#FEC34E" transform="scale(2 2)" d="M351.578 176.221C366.421 174.503 384.898 181.226 396.506 190.202C441.78 225.214 429.011 297.864 371.871 312.454C367.523 313.564 363.133 314.153 358.689 314.696C340.727 316.395 320.72 309.323 307.629 297.039C262.691 254.872 291.635 177.62 351.578 176.221Z"/>
	<path fill="#3F3E3F" transform="scale(2 2)" d="M362.287 205.999L379.073 205.999C367.778 230.678 357.259 255.733 345.727 280.301C340.252 280.602 334.595 280.325 329.105 280.301C331.865 273.332 335.111 266.501 338.223 259.681L354.107 224.593C356.867 218.419 359.78 212.28 362.287 205.999Z"/>
	<path fill="#3F3E3F" transform="scale(2 2)" d="M324.875 226.309C329.377 225.972 332.791 229.369 332.881 233.837C332.983 238.907 328.042 242.034 324.875 245.305C327.18 248.122 331.055 250.421 332.237 253.98C334.594 261.073 327.11 266.747 320.586 263.174C314.192 257.888 308.89 250.982 302.783 245.305C308.412 240.382 317.811 226.871 324.875 226.309Z"/>
	<path fill="#3F3E3F" transform="scale(2 2)" d="M383.905 226.309C391.044 225.874 400.497 237.082 404.264 242.196C408.679 248.188 394.072 257.667 389.723 263.174C384.192 265.569 377.153 263.393 377.147 256.617C377.143 251.485 381.932 248.584 385.222 245.305C381.253 240.29 369.903 230.338 383.905 226.309Z"/>
	<path fill="#CCE4F0" transform="scale(2 2)" d="M298.941 85.7128L341.137 85.609C361.69 85.7431 361.212 104.961 361.177 119.931L150.375 119.931L88.1348 119.931C88.1817 110.334 86.2186 98.7492 93.6807 91.3291C101.825 83.2305 115.752 85.709 126.155 85.7164L298.941 85.7128Z"/>
	<path fill="#3F3E3F" transform="scale(2 2)" d="M107.254 96.1888L122.761 96.1888L122.761 110.459L107.254 110.459L107.254 96.1888Z"/>
	<path fill="#3F3E3F" transform="scale(2 2)" d="M164.916 96.1888L180.48 96.1888L180.48 110.459L164.916 110.459C164.895 105.704 164.83 100.944 164.916 96.1888Z"/>
	<path fill="#3F3E3F" transform="scale(2 2)" d="M150.375 96.1888C153.007 95.927 151.243 107.444 151.245 110.459L137.687 110.459C134.614 110.431 136.175 99.2812 136.191 96.1888L150.375 96.1888Z"/>
	<path fill="#83A4BE" transform="scale(2 2)" d="M312.494 357.369L395.294 357.369L395.294 391.404L312.494 391.404L312.494 357.369Z"/>
	<path fill="#2E8DD5" transform="scale(2 2)" d="M362.287 406.668L403.451 406.666C410.331 406.665 417.264 406.454 424.137 406.668C424.021 411.862 424.152 417.085 424.137 422.282L345.727 422.282L282.458 422.282L282.458 406.668L362.287 406.668Z"/>
	<path fill="#CCE4F0" transform="scale(2 2)" d="M368.972 328.766L369.147 328.808C369.612 329.927 368.965 339.819 368.972 341.982L339.925 341.982C339.814 337.588 339.923 333.164 339.925 328.766C349.457 331.152 359.389 330.402 368.972 328.766Z"/>
</svg>
